<?xml version="1.0" encoding="UTF-8"?>
<svg width="294px" height="115px" viewBox="0 0 294 115" version="1.1" xmlns="http://www.w3.org/2000/svg" xmlns:xlink="http://www.w3.org/1999/xlink">
    <!-- Generator: Sketch 49.3 (51167) - http://www.bohemiancoding.com/sketch -->
    <title>glasses</title>
    <desc>Created with Sketch.</desc>
    <defs></defs>
    <g id="Page-1" stroke="none" stroke-width="1" fill="none" fill-rule="evenodd">
        <g id="glasses" fill="#FFFFFF" fill-rule="nonzero">
            <path d="M77.916,0.562 C57.994,0.562 40.434,10.832 30.224,26.347 L6,26.347 C2.687,26.347 0,29.034 0,32.347 C0,35.66 2.687,38.347 6,38.347 L24.213,38.347 C22.044,44.372 20.854,50.861 20.854,57.623 C20.854,89.087 46.452,114.685 77.916,114.685 C109.38,114.685 134.978,89.087 134.978,57.623 C134.978,26.159 109.38,0.562 77.916,0.562 Z M77.916,102.685 C53.069,102.685 32.854,82.47 32.854,57.623 C32.854,32.776 53.069,12.561 77.916,12.561 C102.763,12.561 122.978,32.776 122.978,57.623 C122.978,82.47 102.763,102.685 77.916,102.685 Z" id="Shape"></path>
            <path d="M287.246,26.347 L260.196,26.347 C257.3,21.933 253.794,17.9 249.736,14.4 C239.391,5.476 226.161,0.562 212.483,0.562 C192.051,0.562 174.102,11.363 164.021,27.548 C159.645,21.953 152.838,18.346 145.2,18.346 C141.198,18.346 137.236,19.357 133.743,21.268 C130.836,22.859 129.769,26.505 131.36,29.413 C132.95,32.319 136.596,33.385 139.504,31.796 C141.261,30.834 143.177,30.347 145.2,30.347 C151.756,30.347 157.09,35.681 157.09,42.237 C157.09,42.645 157.132,43.044 157.209,43.43 C156.042,47.97 155.421,52.726 155.421,57.625 C155.421,89.089 181.019,114.687 212.483,114.687 C236.106,114.687 257.57,99.839 265.897,77.741 C267.065,74.64 265.499,71.179 262.397,70.012 C259.297,68.842 255.835,70.409 254.667,73.511 C248.092,90.962 231.14,102.688 212.483,102.688 C187.636,102.688 167.421,82.473 167.421,57.626 C167.421,32.779 187.636,12.564 212.483,12.564 C234.811,12.564 253.531,28.543 256.995,50.559 C257.51,53.832 260.579,56.067 263.855,55.553 C267.128,55.038 269.364,51.967 268.85,48.694 C268.293,45.152 267.391,41.692 266.19,38.349 L287.247,38.349 C290.56,38.349 293.247,35.662 293.247,32.349 C293.247,29.036 290.56,26.347 287.246,26.347 Z" id="Shape"></path>
        </g>
    </g>
</svg>